<svg width="20" height="21" viewBox="0 0 20 21" fill="none" xmlns="http://www.w3.org/2000/svg">
<path id="LinkedIn" d="M4.54016 21V6.83134H0.252944V21H4.54016ZM2.3971 4.89568C3.89213 4.89568 4.82271 3.8077 4.82271 2.44807C4.79486 1.05779 3.89219 0 2.42548 0C0.958991 0 0 1.05781 0 2.44807C0 3.80776 0.930353 4.89568 2.36912 4.89568H2.39697H2.3971ZM6.91312 21H11.2003V13.0875C11.2003 12.6641 11.2282 12.241 11.3414 11.9383C11.6513 11.0923 12.3567 10.216 13.5411 10.216C15.0924 10.216 15.7131 11.5153 15.7131 13.42V20.9999H20V12.8757C20 8.52366 17.8849 6.4987 15.0642 6.4987C12.7514 6.4987 11.7359 7.91876 11.1718 8.88595H11.2004V6.83104H6.91321C6.96948 8.16055 6.91321 20.9997 6.91321 20.9997L6.91312 21Z" fill="#696969"/>
</svg>
