<svg xmlns="http://www.w3.org/2000/svg" width="35" height="28" viewBox="0 0 35 28" fill="none">
<path d="M34.059 3.28428C32.8065 3.83928 31.461 4.21428 30.0465 4.38378C31.506 3.51047 32.5979 2.13598 33.1185 0.516778C31.7473 1.33126 30.2465 1.90457 28.6815 2.21178C27.6291 1.08808 26.2351 0.343267 24.716 0.0929886C23.1969 -0.15729 21.6376 0.100965 20.2804 0.827657C18.9231 1.55435 17.8437 2.70882 17.2097 4.11183C16.5758 5.51485 16.4228 7.0879 16.7745 8.58678C13.996 8.44727 11.2779 7.7251 8.79664 6.46713C6.31533 5.20917 4.12626 3.44352 2.3715 1.28478C1.7715 2.31978 1.4265 3.51978 1.4265 4.79778C1.42583 5.94827 1.70915 7.08114 2.25132 8.09588C2.79349 9.11061 3.57774 9.97583 4.5345 10.6148C3.42491 10.5795 2.33981 10.2797 1.3695 9.74028V9.83028C1.36939 11.4439 1.92755 13.0078 2.94927 14.2568C3.971 15.5057 5.39336 16.3627 6.975 16.6823C5.94568 16.9609 4.86651 17.0019 3.819 16.8023C4.26525 18.1907 5.13449 19.4048 6.30505 20.2747C7.47561 21.1445 8.88888 21.6265 10.347 21.6533C7.87175 23.5964 4.81483 24.6504 1.668 24.6458C1.11057 24.6459 0.553614 24.6134 0 24.5483C3.19421 26.602 6.91251 27.692 10.71 27.6878C23.565 27.6878 30.5925 17.0408 30.5925 7.80678C30.5925 7.50678 30.585 7.20378 30.5715 6.90378C31.9384 5.91524 33.1184 4.69112 34.056 3.28878L34.059 3.28428Z" fill="#FFBB88"/>
</svg>