<svg width="70" height="70" viewBox="0 0 70 70" fill="none" xmlns="http://www.w3.org/2000/svg">
<g id="whh:steak" clip-path="url(#clip0_119_30)">
<path id="Vector" d="M65.574 66.5953C63.8036 68.4111 61.3862 69.4893 58.322 69.8297C55.2578 70.1702 51.8418 69.6708 48.074 68.3317C44.3062 66.9925 40.6518 64.8929 37.111 62.033C35.3405 60.5804 33.3204 59.4682 31.0506 58.6964C28.7809 57.9247 26.6132 57.4367 24.5477 57.2324C22.4822 57.0282 20.4508 56.8466 18.4534 56.6877C16.456 56.5288 14.5834 56.1883 12.8357 55.6663C11.0879 55.1442 9.69202 54.3385 8.64792 53.249C5.01628 49.5719 2.50817 44.9075 1.12361 39.2558C-0.26096 33.604 -0.340403 27.9523 0.885278 22.3005C2.11096 16.6488 4.53962 11.9844 8.17127 8.30734C11.8029 4.6303 16.3992 2.16759 21.9602 0.919208C27.5211 -0.329171 33.0821 -0.249729 38.6431 1.15753C44.204 2.5648 48.8003 5.12965 52.432 8.85209C54.6564 11.0765 56.8921 14.1407 59.1392 18.0447C61.3862 21.9487 63.361 26.2159 65.0633 30.8463C66.7656 35.4766 68.0707 40.0616 68.9787 44.6011C69.8866 49.1407 70.0795 53.3965 69.5575 57.3686C69.0354 61.3407 67.7076 64.4163 65.574 66.5953ZM50.1849 13.142C47.6427 10.5544 44.658 8.48892 41.2306 6.94547C37.8032 5.40202 34.251 4.5622 30.574 4.42602C27.0331 4.33523 23.5604 4.92537 20.1557 6.19645C16.751 7.46752 13.8684 9.28335 11.5078 11.6439C6.46894 16.7736 4.10837 23.0836 4.42613 30.5739C4.51693 33.6608 5.08437 36.8498 6.12847 40.141C7.17257 43.4322 8.37555 46.3035 9.73742 48.7548C10.4184 49.9351 11.6213 50.7976 13.3464 51.3424C15.0714 51.8871 17.0575 52.2276 19.3045 52.3638C21.5516 52.5 23.8554 52.6361 26.216 52.7723C28.5766 52.9085 30.9599 53.2944 33.3658 53.9299C35.7718 54.5654 37.7465 55.5188 39.2899 56.7898C42.513 59.4228 45.5205 61.4202 48.3123 62.7821C51.1041 64.1439 53.6576 64.8589 55.9728 64.927C58.288 64.9951 60.2173 64.2347 61.7608 62.6459C63.622 60.7393 64.7796 58.0836 65.2335 54.6789C65.6875 51.2743 65.5059 47.6313 64.6888 43.75C63.8717 39.8686 62.7254 35.9533 61.2501 32.0038C59.7747 28.0544 58.0497 24.4228 56.075 21.1089C54.1003 17.795 52.1369 15.1394 50.1849 13.142ZM39.2899 52.4319C37.6557 51.07 35.4086 50.0486 32.5487 49.3677C29.6888 48.6867 26.9991 48.2895 24.4796 48.176C21.9602 48.0625 19.5883 47.8356 17.3639 47.4951C15.1395 47.1546 13.7322 46.5985 13.1421 45.8268C10.4637 42.4675 9.01109 37.6556 8.78411 31.391C8.51174 24.9448 10.5318 19.4974 14.8444 15.0486C16.8418 13.0058 19.3045 11.4283 22.2326 10.3161C25.1606 9.2039 28.1453 8.6932 31.1868 8.78399C34.3191 8.87479 37.3606 9.60112 40.3113 10.963C43.2621 12.3249 45.8269 14.118 48.0059 16.3424C51.229 19.6108 54.2137 24.7405 56.9602 31.7315C59.7066 38.7224 61.0798 44.8962 61.0798 50.2529C61.0798 52.4773 60.955 54.2363 60.7053 55.5301C60.4556 56.8239 59.8541 57.9701 58.9008 58.9688C55.4508 62.4643 48.9138 60.2853 39.2899 52.4319ZM24.037 17.4999C22.2212 17.4999 20.6778 18.1468 19.4067 19.4406C18.1356 20.7344 17.5001 22.2778 17.5001 24.071C17.5001 25.8641 18.1356 27.3962 19.4067 28.6673C20.6778 29.9383 22.2212 30.5739 24.037 30.5739C25.8529 30.5739 27.3963 29.9383 28.6674 28.6673C29.9385 27.3962 30.574 25.8641 30.574 24.071C30.574 22.2778 29.9385 20.7344 28.6674 19.4406C27.3963 18.1468 25.8529 17.4999 24.037 17.4999Z" fill="#FFBB88"/>
</g>
<defs>
<clipPath id="clip0_119_30">
<rect width="69.8639" height="70" fill="white"/>
</clipPath>
</defs>
</svg>
