<svg width="80" height="80" viewBox="0 0 80 80" fill="none" xmlns="http://www.w3.org/2000/svg">
<g id="bx:bxs-drink">
<path id="Vector" d="M69.44 15.1833C69.7749 14.6813 69.9673 14.0978 69.9966 13.4951C70.0258 12.8923 69.8909 12.2929 69.6062 11.7608C69.3215 11.2287 68.8977 10.7839 68.38 10.4738C67.8623 10.1637 67.2701 9.99991 66.6667 10H13.3333C12.7304 10.0003 12.1388 10.1642 11.6216 10.4741C11.1044 10.784 10.681 11.2284 10.3964 11.76C10.1118 12.2916 9.97671 12.8904 10.0055 13.4926C10.0343 14.0949 10.226 14.678 10.56 15.18L36.6667 54.3433V66.6667H26.6667V73.3333H53.3333V66.6667H43.3333V54.3433L69.44 15.1833ZM60.44 16.6667L53.7733 26.6667H26.2267L19.56 16.6667H60.44Z" fill="#FFBB88"/>
</g>
</svg>
