<svg width="80" height="75" viewBox="0 0 80 75" fill="none" xmlns="http://www.w3.org/2000/svg">
<g id="ion:fast-food">
<path id="Vector" d="M74.9297 9.99997H60.7016L62.0953 4.42809L68.0828 2.38903C69.3563 1.95622 70.1141 0.603094 69.7469 -0.690656C69.6535 -1.01611 69.4949 -1.31919 69.2808 -1.58151C69.0668 -1.84384 68.8016 -2.05994 68.5015 -2.21672C68.2014 -2.3735 67.8726 -2.46768 67.535 -2.49355C67.1974 -2.51942 66.858 -2.47644 66.5375 -2.36722L59.1938 0.132781C58.7983 0.26764 58.4429 0.499475 58.1601 0.807094C57.8773 1.11471 57.6762 1.4883 57.575 1.89372L55.5485 9.99997H35.0703C33.725 9.99997 32.5703 11.0343 32.5031 12.3797C32.4869 12.7177 32.5394 13.0555 32.6575 13.3726C32.7756 13.6897 32.9569 13.9796 33.1904 14.2246C33.4238 14.4696 33.7046 14.6646 34.0156 14.7979C34.3267 14.9312 34.6616 14.9999 35 15H35.4297L35.586 16.3531C35.6227 16.6691 35.7744 16.9605 36.0121 17.172C36.2498 17.3835 36.5569 17.5002 36.875 17.5C42.9688 17.5 48.3844 19.2031 52.5188 22.425C54.8184 24.1968 56.6825 26.4709 57.9688 29.0734C58.6888 30.5373 59.2201 32.0867 59.55 33.6843C59.6157 33.9957 59.8001 34.2692 60.0641 34.4468C62.1896 35.8891 63.7576 38.0153 64.5075 40.472C65.2573 42.9288 65.1439 45.5682 64.186 47.9515C64.0745 48.2274 64.0662 48.5341 64.1625 48.8156C64.7161 50.4019 64.9992 52.0699 65 53.75C65 57.2406 63.8125 60.5672 61.6563 63.1172C60.4338 64.5725 58.896 65.7305 57.1594 66.5031C56.859 66.6355 56.6227 66.8807 56.5016 67.1859C55.8526 68.8764 54.9363 70.4517 53.7875 71.8515C53.7397 71.9083 53.7091 71.9776 53.6992 72.0512C53.6893 72.1247 53.7006 72.1996 53.7318 72.267C53.7629 72.3344 53.8127 72.3915 53.8751 72.4317C53.9376 72.4718 54.0102 72.4933 54.0844 72.4937H61.7735C63.656 72.486 65.4675 71.7738 66.8512 70.4974C68.235 69.2209 69.0908 67.4727 69.25 65.5968L74.5938 15H75C75.3387 15.0004 75.6739 14.9319 75.9854 14.7988C76.2968 14.6657 76.5779 14.4708 76.8117 14.2257C77.0455 13.9807 77.2271 13.6907 77.3454 13.3734C77.4637 13.056 77.5163 12.7179 77.5 12.3797C77.4344 11.0343 76.275 9.99997 74.9297 9.99997Z" fill="#FFBB88"/>
<path id="Vector_2" d="M16.9828 45C17.4759 44.9977 17.9645 45.0931 18.4205 45.2809C18.8764 45.4686 19.2906 45.7449 19.6391 46.0938L22.0625 48.5172C22.1205 48.5753 22.1895 48.6214 22.2654 48.6528C22.3412 48.6843 22.4226 48.7005 22.5047 48.7005C22.5868 48.7005 22.6682 48.6843 22.744 48.6528C22.8199 48.6214 22.8888 48.5753 22.9469 48.5172L25.3656 46.0938C25.7141 45.7449 26.1283 45.4686 26.5842 45.2809C27.0402 45.0931 27.5288 44.9977 28.0219 45H58.7375C58.9017 45.0016 59.0645 44.9709 59.2168 44.9096C59.3691 44.8484 59.5078 44.7577 59.6251 44.6427C59.7423 44.5278 59.8358 44.3909 59.9001 44.2399C59.9644 44.0889 59.9984 43.9267 60 43.7625V43.75C59.9982 42.3097 59.5 40.9141 58.5892 39.7984C57.6784 38.6827 56.4108 37.9151 55 37.625C54.8719 32.9859 52.9688 29.1031 49.4516 26.375C46.1984 23.8375 41.8516 22.5 36.875 22.5H25.625C14.9656 22.5 7.74531 28.5578 7.5 37.625C6.08924 37.9151 4.82162 38.6827 3.91083 39.7984C3.00003 40.9141 2.50176 42.3097 2.5 43.75C2.5 44.0815 2.6317 44.3995 2.86612 44.6339C3.10054 44.8683 3.41848 45 3.75 45H16.9828Z" fill="#FFBB88"/>
<path id="Vector_3" d="M29.0531 50C28.8889 49.9999 28.7263 50.0321 28.5746 50.0949C28.4228 50.1576 28.2849 50.2496 28.1688 50.3657L24.7094 53.8266C24.1234 54.4124 23.3286 54.7415 22.5 54.7415C21.6714 54.7415 20.8766 54.4124 20.2906 53.8266L16.8313 50.3657C16.7151 50.2496 16.5772 50.1576 16.4254 50.0949C16.2737 50.0321 16.1111 49.9999 15.9469 50H5.10313C4.51587 49.9974 3.9466 50.2025 3.49597 50.5791C3.04534 50.9557 2.74237 51.4795 2.64063 52.0578C2.54676 52.617 2.49972 53.183 2.5 53.75C2.5 58.5297 5.80156 62.4235 9.88438 62.5C10.2641 64.8625 11.1828 66.9969 12.5656 68.6672C14.6109 71.1375 17.5844 72.5 20.9375 72.5H41.5625C44.9156 72.5 47.8891 71.1375 49.9344 68.6641C51.3172 66.9938 52.2359 64.8594 52.6156 62.4969C56.6984 62.4235 60 58.5297 60 53.7469C60.0003 53.1799 59.9532 52.6139 59.8594 52.0547C59.757 51.4769 59.4537 50.9539 59.0032 50.5779C58.5526 50.202 57.9837 49.9973 57.3969 50H29.0531Z" fill="#FFBB88"/>
</g>
</svg>
