<svg width="80" height="48" viewBox="0 0 80 48" fill="none" xmlns="http://www.w3.org/2000/svg">
<path d="M25.4545 0.181763C23.2727 0.181763 21.8182 0.909036 21.8182 3.09085H15.2727C7.27273 3.09085 0.727273 8.90904 0.727273 16.909C0.727273 20.5454 2.90909 24.1818 5.81818 27.0909C2.18182 29.2727 0 32.1818 0 36.5454C0 42.3636 5.09091 47.4545 11.6364 47.4545H53.8182C60.3636 47.4545 65.4545 42.3636 65.4545 36.5454C65.4545 35.0909 65.4545 33.6363 64.7273 32.1818L72 35.8181C74.9091 37.2727 77.8182 35.8181 79.2727 33.6363C80.7273 30.7272 78.8873 27.8618 76.7782 26.7709L71.2727 24.1818L74.9091 23.4545C77.8182 22.7272 80 20.5454 79.2727 17.6363C78.5455 14.7272 76.3636 13.2727 73.4546 13.2727H72.7273L61.0909 15.4545C58.1818 10.3636 53.0909 4.5454 43.6364 3.81813C43.6364 3.81813 43.6364 0.181763 40 0.181763H25.4545ZM29.0909 7.45449H36.3636V39.4545H29.0909V7.45449ZM50.9091 24.909C52.3636 24.909 53.0909 25.6363 53.8182 27.0909L54.5455 26.3636C55.2727 24.909 56.7273 24.909 58.1818 25.6363C59.6364 26.3636 59.6364 27.8181 58.9091 29.2727L56.7273 32.909C57.4545 33.6363 58.1818 34.3636 58.1818 35.8181C58.1818 37.9999 56.7273 39.4545 53.8182 39.4545H43.6364V32.1818H48.7273V27.8181C48.7273 26.3636 49.4545 24.909 50.9091 24.909ZM13.8182 25.6363C14.5455 25.6363 16 25.6363 16.7273 27.0909L17.4545 28.5454C18.1818 27.8181 18.9091 27.8181 19.6364 27.8181C21.0909 27.8181 21.8182 29.2727 21.8182 29.9999V39.4545H11.6364C8.72727 39.4545 7.27273 37.9999 7.27273 35.8181C7.27273 33.6363 8.72727 32.1818 11.6364 32.1818H13.8182L12.3636 29.2727C11.6364 27.8181 12.3636 26.3636 13.0909 25.6363H13.8182Z" fill="#FFBB88"/>
</svg>
