<svg width="80" height="80" viewBox="0 0 80 80" fill="none" xmlns="http://www.w3.org/2000/svg">
<g id="whh:chicken">
<path id="Vector" d="M70.625 66.25C70.0781 66.25 68.9388 65.4753 67.207 63.9258C65.7031 63.4245 64.6549 63.4701 64.0625 64.0625C63.4701 64.6549 63.4245 65.7031 63.9258 67.207C65.4753 68.9388 66.25 70.0781 66.25 70.625C66.25 71.8099 65.8171 72.8353 64.9512 73.7012C64.0853 74.5671 63.0485 75 61.8408 75C60.6331 75 59.6077 74.5671 58.7646 73.7012C57.9216 72.8353 57.5 71.8099 57.5 70.625C57.5 70.0781 57.4089 69.4515 57.2266 68.7451C57.0443 68.0387 56.6113 66.9564 55.9277 65.498C55.2441 64.0397 54.6745 62.8434 54.2188 61.9092C53.763 60.9749 52.8743 59.1634 51.5527 56.4746L46.6309 51.8262C46.6764 51.735 46.8359 51.4616 47.1094 51.0059C47.3828 50.5501 47.6449 50.14 47.8955 49.7754C48.1462 49.4108 48.431 49.069 48.75 48.75C49.069 48.431 49.3994 48.1462 49.7412 47.8955C50.083 47.6449 50.4704 47.3942 50.9033 47.1436C51.3363 46.8929 51.6211 46.722 51.7578 46.6309L56.4746 51.5527C59.1634 52.8743 60.9749 53.763 61.9092 54.2188C62.8434 54.6745 64.0397 55.2441 65.498 55.9277C66.9564 56.6113 68.0387 57.0443 68.7451 57.2266C69.4515 57.4089 70.0781 57.5 70.625 57.5C71.8099 57.5 72.8353 57.9329 73.7012 58.7988C74.5671 59.6647 75 60.7015 75 61.9092C75 63.1169 74.5671 64.1423 73.7012 64.9854C72.8353 65.8284 71.8099 66.25 70.625 66.25ZM46.5625 46.5625C46.0156 47.1094 45.5257 47.793 45.0928 48.6133C44.6598 49.4336 44.2497 50.026 43.8623 50.3906C43.4749 50.7552 42.9167 50.9375 42.1875 50.9375C40.1823 50.9375 38.2796 50.7096 36.4795 50.2539C34.6794 49.7982 33.1982 49.2627 32.0361 48.6475C30.874 48.0322 29.3929 47.3031 27.5928 46.46C25.7926 45.6169 24.0951 44.9219 22.5 44.375C15.8464 42.1419 11.2663 39.6468 8.75977 36.8896C6.25326 34.1325 5 30.0651 5 24.6875C5 19.2643 6.92546 14.6273 10.7764 10.7764C14.6273 6.92546 19.2643 5 24.6875 5C30.0651 5 34.1325 6.25326 36.8896 8.75977C39.6468 11.2663 42.1419 15.8464 44.375 22.5C45.013 24.3685 45.9359 26.4762 47.1436 28.8232C48.3512 31.1702 49.2855 33.335 49.9463 35.3174C50.6071 37.2998 50.9375 39.5898 50.9375 42.1875C50.9375 42.8711 50.7438 43.4066 50.3564 43.7939C49.9691 44.1813 49.3652 44.6143 48.5449 45.0928C47.7246 45.5713 47.0638 46.0612 46.5625 46.5625Z" fill="#FFBB88"/>
</g>
</svg>
