<svg width="80" height="80" viewBox="0 0 80 80" fill="none" xmlns="http://www.w3.org/2000/svg">
<g id="Icon">
<g id="Group">
<path id="Vector" d="M16 8.55653C16 3.76577 19.9157 -0.289971 24.8815 0.0162874C44.3377 1.21507 61.4007 7.76026 74.7667 20.5225C78.5599 24.1407 77.8118 30.0515 73.8785 33.0747L72.811 33.8929L71.0741 31.9635L71.0435 31.9328C58.1981 18.7374 39.5819 10.9935 19.8107 10.9935H16V8.55216V8.55653ZM16 15.3686V63.4337C16 68.8239 22.1514 71.9127 26.4784 68.6883L33.5136 63.4512V63.46C33.5136 64.6203 33.9746 65.7332 34.7951 66.5537C35.6156 67.3742 36.7284 67.8351 37.8888 67.8351C39.0491 67.8351 40.1619 67.3742 40.9824 66.5537C41.8029 65.7332 42.2639 64.6203 42.2639 63.46V54.701C42.2576 54.1394 42.4676 53.5968 42.8503 53.1858C43.2331 52.7747 43.7593 52.5266 44.3199 52.4929C44.8805 52.4592 45.4327 52.6423 45.862 53.0045C46.2912 53.3667 46.5648 53.8802 46.6259 54.4385V56.8885C46.6259 58.0489 47.0868 59.1617 47.9073 59.9822C48.7278 60.8027 49.8407 61.2637 51.001 61.2637C52.1614 61.2637 53.2742 60.8027 54.0947 59.9822C54.9152 59.1617 55.3761 58.0489 55.3761 56.8885V47.097C58.9856 44.4501 64.5026 40.2587 69.3328 36.5617L67.8846 34.9517C55.8968 22.6707 38.4444 15.3686 19.8064 15.3686H16ZM34.5855 27.3652C34.5855 28.2326 34.241 29.0644 33.6277 29.6777C33.0143 30.291 32.1825 30.6356 31.3151 30.6356C30.4478 30.6356 29.6159 30.291 29.0026 29.6777C28.3893 29.0644 28.0447 28.2326 28.0447 27.3652C28.0447 26.4978 28.3893 25.666 29.0026 25.0527C29.6159 24.4394 30.4478 24.0948 31.3151 24.0948C32.1825 24.0948 33.0143 24.4394 33.6277 25.0527C34.241 25.666 34.5855 26.4978 34.5855 27.3652ZM47.6015 36.1155C47.6015 36.9828 47.257 37.8147 46.6437 38.428C46.0303 39.0413 45.1985 39.3859 44.3311 39.3859C43.4638 39.3859 42.6319 39.0413 42.0186 38.428C41.4053 37.8147 41.0607 36.9828 41.0607 36.1155C41.0607 35.2481 41.4053 34.4162 42.0186 33.8029C42.6319 33.1896 43.4638 32.845 44.3311 32.845C45.1985 32.845 46.0303 33.1896 46.6437 33.8029C47.257 34.4162 47.6015 35.2481 47.6015 36.1155ZM34.6205 47.062C34.6205 47.934 34.2741 48.7703 33.6575 49.3869C33.0409 50.0035 32.2046 50.3499 31.3326 50.3499C30.4606 50.3499 29.6243 50.0035 29.0077 49.3869C28.3911 48.7703 28.0447 47.934 28.0447 47.062C28.0447 46.19 28.3911 45.3537 29.0077 44.7371C29.6243 44.1205 30.4606 43.7741 31.3326 43.7741C32.2046 43.7741 33.0409 44.1205 33.6575 44.7371C34.2741 45.3537 34.6205 46.19 34.6205 47.062Z" fill="#FFBB88"/>
</g>
</g>
</svg>
